<svg xmlns="http://www.w3.org/2000/svg" viewBox="0 0 301.21 315.97"><defs><style>.cls-1{fill:#1a1a1a;}.cls-2{fill:none;}.cls-3{fill:#a67c52;}.cls-4{fill:#8cc63f;}</style></defs><title>cube</title><g id="Capa_2" data-name="Capa 2"><g id="cube"><path class="cls-1" d="M4.31,130.92q0,35.09,0,70.17a4.63,4.63,0,0,0,2.08,4.33q71.3,50.77,142.5,101.66c1.61,1.15,2.66,1.17,4.28,0q71.2-50.9,142.43-101.77a5.54,5.54,0,0,0,2-3.91q.15-70.33.13-140.67c0-2-.52-3-2.57-3.75Q224.22,31.6,153.33,6.12a7.5,7.5,0,0,0-4.67,0Q77.88,31.44,7.15,56.87c-2.29.82-2.89,1.94-2.89,4.2C4.34,84.36,4.31,107.64,4.31,130.92Z"/><path class="cls-2" d="M0,130.87c0-24.34,0-48.69,0-73,0-2.37.62-3.54,3-4.4Q75.61,27,148.22.39a7.57,7.57,0,0,1,4.79,0q72.8,26.54,145.57,53.2c2.1.77,2.64,1.83,2.63,3.92q-.08,73.53-.13,147.07a5.82,5.82,0,0,1-2.08,4.09q-73,53.27-146.19,106.4c-1.67,1.21-2.74,1.19-4.39,0Q75.33,261.84,2.15,208.77A4.87,4.87,0,0,1,0,204.24Q.1,167.55,0,130.87ZM144.41,297.05c.08-1.27.19-2.12.19-3q0-77.9.08-155.8c0-2.54-1.11-3.49-3.07-4.48q-63-31.73-126-63.55c-1-.53-2.14-1-3.58-1.62V72.9q0,62.19-.07,124.37a6.6,6.6,0,0,0,3.1,6.08q63.2,45.79,126.3,91.7C142.24,295.69,143.17,296.24,144.41,297.05Zm12.22.16c1.22-.78,1.88-1.16,2.49-1.61q64-46.47,127.93-92.91a4.87,4.87,0,0,0,2.19-4.49q-.08-63.2,0-126.4c0-.93-.16-1.87-.27-3.06-1.37.64-2.39,1.07-3.38,1.57Q222.69,102,159.82,133.67c-2.45,1.23-3.27,2.65-3.26,5.39q.13,77.05.06,154.11ZM21.37,59.55c1.1.65,1.56,1,2,1.2Q86,92.33,148.5,124c2,1,3.36.39,5-.42l123-62.1c1-.5,1.94-1.05,3.28-1.79-1.32-.55-2.21-1-3.13-1.29Q215,35.76,153.26,13.24a8.59,8.59,0,0,0-5.42.05Q105.62,28.6,63.49,44.13Z"/><path class="cls-3" d="M149.39,296.18c-1.28-.82-2.25-1.38-3.15-2q-65.47-46.53-131-93a6.66,6.66,0,0,1-3.22-6.17c.09-35.29.07-119.41.07-126.18V64.44c1.49.66,2.63,1.1,3.71,1.64q65.31,32.24,130.63,64.47c2,1,3.18,2,3.18,4.55,0,8.35-.07,113.73-.08,158.07C149.59,294,149.48,294.89,149.39,296.18Z"/><path class="cls-3" d="M153.24,297.21v-4.14q0-78.8-.07-157.6c0-2.79.83-4.25,3.35-5.51Q221,97.65,285.44,65.17c1-.51,2.06-1,3.47-1.61.11,1.22.27,2.18.27,3.13q0,64.63.05,129.26a5,5,0,0,1-2.24,4.6q-65.63,47.46-131.19,95C155.17,296,154.49,296.41,153.24,297.21Z"/><path class="cls-4" d="M15.65,61.68l44-15.83q44-15.87,88.09-31.66a9.11,9.11,0,0,1,5.66-.06q64.44,23.06,128.81,46.34c1,.35,1.89.76,3.27,1.33-1.41.76-2.4,1.33-3.43,1.84L153.58,127.41c-1.68.83-3.09,1.48-5.19.44Q83.14,95.29,17.78,62.92C17.27,62.66,16.79,62.35,15.65,61.68Z"/></g></g></svg>