<?xml version="1.0" encoding="utf-8"?>
<!-- Generator: Adobe Illustrator 21.0.0, SVG Export Plug-In . SVG Version: 6.00 Build 0)  -->
<svg version="1.1" id="Capa_1" xmlns="http://www.w3.org/2000/svg" xmlns:xlink="http://www.w3.org/1999/xlink" x="0px" y="0px"
	 viewBox="0 0 301.2 316" style="enable-background:new 0 0 301.2 316;" xml:space="preserve">
<style type="text/css">
	.st0{fill:#1A1A1A;}
	.st1{fill:none;}
	.st2{fill:#A67C52;}
	.st3{fill:#8CC63F;}
</style>
<title>cube</title>
<g id="Capa_2">
	<g id="cube">
		<path class="st0" d="M4.3,130.9c0,23.4,0,46.8,0,70.2c-0.2,1.7,0.6,3.4,2.1,4.3c47.5,33.8,95,67.7,142.5,101.7
			c1.6,1.1,2.7,1.2,4.3,0c47.5-33.9,94.9-67.9,142.4-101.8c1.2-1,1.9-2.4,2-3.9c0.1-46.9,0.1-93.8,0.1-140.7c0-2-0.5-3-2.6-3.8
			c-47.3-16.9-94.6-33.9-141.8-50.9c-1.5-0.5-3.2-0.5-4.7,0C101.5,23,54.3,39.9,7.2,56.9c-2.3,0.8-2.9,1.9-2.9,4.2
			C4.3,84.4,4.3,107.6,4.3,130.9z"/>
		<path class="st1" d="M0,130.9c0-24.3,0-48.7,0-73c0-2.4,0.6-3.5,3-4.4C51.4,35.8,99.8,18.1,148.2,0.4c1.6-0.5,3.2-0.5,4.8,0
			c48.5,17.7,97.1,35.4,145.6,53.2c2.1,0.8,2.6,1.8,2.6,3.9c-0.1,49-0.1,98-0.1,147.1c-0.1,1.6-0.9,3.1-2.1,4.1
			c-48.7,35.5-97.4,71-146.2,106.4c-1.7,1.2-2.7,1.2-4.4,0C99.7,279.6,50.9,244.2,2.2,208.8c-1.5-1-2.3-2.7-2.2-4.5
			C0.1,179.8,0.1,155.3,0,130.9z M144.4,297c0.1-1.3,0.2-2.1,0.2-3c0-51.9,0-103.9,0.1-155.8c0-2.5-1.1-3.5-3.1-4.5
			c-42-21.2-84-42.3-126-63.6c-1-0.5-2.1-1-3.6-1.6v4.3c0,41.5,0,82.9-0.1,124.4c-0.2,2.4,1,4.8,3.1,6.1
			c42.1,30.5,84.2,61.1,126.3,91.7C142.2,295.7,143.2,296.2,144.4,297z M156.6,297.2c1.2-0.8,1.9-1.2,2.5-1.6
			c42.7-31,85.3-61.9,127.9-92.9c1.5-1,2.3-2.7,2.2-4.5c-0.1-42.1-0.1-84.3,0-126.4c0-0.9-0.2-1.9-0.3-3.1c-1.4,0.6-2.4,1.1-3.4,1.6
			c-41.9,21.1-83.9,42.2-125.8,63.4c-2.4,1.2-3.3,2.6-3.3,5.4c0.1,51.4,0.1,102.7,0.1,154.1L156.6,297.2z M21.4,59.5
			c1.1,0.7,1.6,1,2,1.2c41.8,21.1,83.5,42.1,125.1,63.3c2,1,3.4,0.4,5-0.4l123-62.1c1-0.5,1.9-1,3.3-1.8c-1.3-0.5-2.2-1-3.1-1.3
			c-41.1-15.1-82.2-30.1-123.4-45.2c-1.8-0.6-3.7-0.6-5.4,0.1c-28.1,10.2-56.3,20.5-84.3,30.8L21.4,59.5z"/>
		<path class="st2" d="M149.4,296.2c-1.3-0.8-2.3-1.4-3.1-2c-43.6-31-87.3-62-131-93c-2.1-1.3-3.4-3.7-3.2-6.2
			c0.1-35.3,0.1-119.4,0.1-126.2v-4.4c1.5,0.7,2.6,1.1,3.7,1.6c43.5,21.5,87.1,43,130.6,64.5c2,1,3.2,2,3.2,4.6
			c0,8.4-0.1,113.7-0.1,158.1C149.6,294,149.5,294.9,149.4,296.2z"/>
		<path class="st2" d="M153.2,297.2v-4.1c0-52.5,0-105.1-0.1-157.6c0-2.8,0.8-4.3,3.4-5.5c43-21.5,86-43.1,128.9-64.8
			c1-0.5,2.1-1,3.5-1.6c0.1,1.2,0.3,2.2,0.3,3.1c0,43.1,0,86.2,0,129.3c0.2,1.8-0.7,3.6-2.2,4.6c-43.8,31.6-87.5,63.3-131.2,95
			C155.2,296,154.5,296.4,153.2,297.2z"/>
		<path class="st3" d="M15.6,61.7l44-15.8c29.3-10.6,58.7-21.1,88.1-31.7c1.8-0.6,3.8-0.6,5.7-0.1c43,15.4,85.9,30.8,128.8,46.3
			c1,0.3,1.9,0.8,3.3,1.3c-1.4,0.8-2.4,1.3-3.4,1.8l-128.5,63.8c-1.7,0.8-3.1,1.5-5.2,0.4c-43.5-21.7-87-43.4-130.6-64.9
			C17.3,62.7,16.8,62.3,15.6,61.7z"/>
	</g>
</g>
</svg>
